<svg xmlns="http://www.w3.org/2000/svg" viewBox="0 0 512 512" xml:space="preserve"><path fill="#fff1ac" d="M406 0a42 42 0 1 0 0 84 42 42 0 0 0 0-84zM509 295V146c0-27-23-48-49-48h-21l-25 66 6-28-1-6-8-15 7-13c1-2 0-5-2-5h-20c-3 0-4 3-3 5l7 13-8 15-1 6 6 28-25-66h-21c-26 0-49 21-49 48v149c0 11 9 20 20 20 12 0 21-9 21-20V146c0-2 2-4 4-4s4 2 4 4v342a24 24 0 0 0 49 0V293h11v195a24 24 0 0 0 48 0V145c0-3 2-5 4-5 3 0 5 2 5 6v149c0 7 4 13 9 17v22c-6 0-10 4-10 9v76c0 6 4 10 10 10h22c5 0 9-4 9-10v-76c0-5-3-9-8-9v-22c5-4 9-10 9-17z"/><circle fill="#fff1ac" cx="132.8" cy="48.7" r="41.5"/><path fill="#fff1ac" d="M261 333v-23c7-5 10-14 7-23-1-1-40-101-54-143-8-24-22-40-48-40l-25 67 6-29-1-6-8-15 7-13c1-2 0-4-2-4h-20c-2 0-4 2-3 4l8 13-8 15c-1 2-2 4-1 6l5 29-25-67c-25 0-39 16-47 40L4 277a20 20 0 0 0 38 13l40-110-29 149c-1 7 4 14 11 14h16v145a24 24 0 1 0 48 0V343h10v145a24 24 0 1 0 48 0V343h15c7 0 13-7 11-14l-28-150 46 123c2 4 5 7 9 9v21h-1c-5 0-9 5-9 10v75c0 5 4 9 9 9h22c5 0 9-4 9-9v-75c0-5-3-9-8-9z"/></svg>
