<svg xmlns="http://www.w3.org/2000/svg" xmlns:xlink="http://www.w3.org/1999/xlink" viewBox="0 0 1620.7 827"><defs><linearGradient id="linear-gradient" x1="314.5" x2="1339.7" y1="413.5" y2="413.5" gradientUnits="userSpaceOnUse"><stop offset="0" stop-color="#c3f6ee"/><stop offset=".4" stop-color="#c6ebfd"/></linearGradient><linearGradient xlink:href="#linear-gradient" id="linear-gradient-2" x1="67" x2="137" y1="349.1" y2="349.1"/><linearGradient xlink:href="#linear-gradient" id="linear-gradient-3" x1="248.5" x2="469.3" y1="168.1" y2="168.1" gradientTransform="rotate(57 349 158)"/><linearGradient xlink:href="#linear-gradient" id="linear-gradient-4" x1="66" x2="142" y1="637.5" y2="637.5"/><linearGradient xlink:href="#linear-gradient" id="linear-gradient-5" x1="3" x2="205" y1="676.5" y2="676.5"/><style>.cls-12,.cls-6{fill:#9ebab7}.cls-14,.cls-41,.cls-6,.cls-9{opacity:.2}.cls-7{fill:#f5c924}.cls-17,.cls-20,.cls-9{fill:#fff}.cls-10{fill:#9fa1d1;opacity:.5}.cls-11{fill:#ecf3f2}.cls-14{fill:#6ab7cc}.cls-17{opacity:.25}.cls-22{fill:#64585c}.cls-24{fill:#537d6f}.cls-25{fill:#5b4c52}.cls-27{fill:#2f3446}.cls-30{fill:#bffac4}.cls-32{fill:#4c3941}.cls-34{opacity:.15}.cls-35{fill:#020202}.cls-36{fill:#f7f2e1}.cls-37{fill:#e6e2bd}.cls-38{fill:#e7a56b}.cls-40{fill:#c8935f}.cls-42{fill:#202020}.cls-43{fill:#66706f}</style></defs><g id="Layer_2" data-name="Layer 2"><g id="Layer_1-2" data-name="Layer 1"><path fill="#162126" d="M1562 392c0-20-22-58-50-58s-49 38-49 58a28 28 0 0 0 3 12 44 44 0 0 0-3 15c0 18 20 33 45 33s45-15 45-33a32 32 0 0 0-1-6c6-6 10-13 10-21Z" opacity=".1"/><path fill="url(#linear-gradient)" d="M1307 384c-23-37-60-56-97-59s-73 5-108 15c-48 13-104 25-140-19-21-26-30-69-22-106 5-26 18-51 18-78 0-29-15-54-34-69s-39-19-61-23c-47-8-96-11-141 5-44-46-105-62-159-40-20 8-40 23-51 46-14 29-14 65-14 100l2 110c0 29 0 58-7 84-24 85-109 103-152 174-18 30-27 69-26 107a233 233 0 0 0 15 81c29 77 98 116 163 115s127-36 185-75c44-29 90-61 139-57 50 5 92 47 137 76 74 47 160 59 239 34 35-12 69-31 95-65 39-52 52-130 52-204 0-54-7-111-33-152Z" opacity=".4"/><path fill="#87bafb" d="M1450 698a61 61 0 0 0-122 0Z"/><path fill="#162126" d="M1379 638a61 61 0 0 1 54 60h16a61 61 0 0 0-61-61 60 60 0 0 0-9 1Z" opacity=".1"/><path d="M1271 260v42h103v-35h34v-42h-103v35Zm129-1h-87v-26h87Zm-121 9h87v26h-87ZM230 346v42h103v-35h34v-42H264v35Zm129-1h-87v-26h87Zm-121 9h87v26h-87Z" class="cls-6"/><path d="M303 658h-17v-20h17a16 16 0 0 0 0-31h-1v-20h1a36 36 0 0 1 0 71Z" class="cls-7"/><path d="M192 557h110a5 5 0 0 1 5 5v114a22 22 0 0 1-22 22h-76a22 22 0 0 1-22-22V562a5 5 0 0 1 5-5Z" class="cls-7"/><path fill="#f59b3d" d="M307 658v18c0 16-13 23-29 23l-69-1c-12 0-21-5-21-20 12 1 75 20 119-20Z" opacity=".4"/><path d="M307 562a5 5 0 0 0-5-5H192a5 5 0 0 0-5 5v9h14a8 8 0 0 0-3 6c0 5 7 10 15 10s15-5 15-10a8 8 0 0 0-3-6h82Z" class="cls-9"/><ellipse cx="225.9" cy="594" class="cls-9" rx="6.9" ry="4.7" transform="rotate(-21 230 602)"/><path d="M82 622s-23-35-32-85a202 202 0 0 1 52-179l1 1c-26 28-43 59-51 93-6 27-7 55-1 85 9 49 32 84 32 85Z" class="cls-10"/><path d="M73 622s-23-35-32-85a202 202 0 0 1 52-179l1 1c-26 28-43 59-51 93-6 27-7 55-1 85 9 49 32 84 32 85Zm17-299h-1c0-1 10-42 40-82a208 208 0 0 1 166-83 206 206 0 0 0-165 83c-30 41-40 82-40 82Z" class="cls-10"/><path d="M100 333h-1c0-1 10-42 40-82a208 208 0 0 1 166-83 206 206 0 0 0-165 83c-30 41-40 82-40 82Z" class="cls-10"/><path d="M85 344h17v300H85z" class="cls-11"/><path d="M102 344h16v300h-16z" class="cls-12"/><path d="M195 108h18v300h-18z" class="cls-11" transform="rotate(54 204 258)"/><path d="M206 123h18v300h-18z" class="cls-12" transform="rotate(54 214 271)"/><circle cx="102" cy="349.1" r="35" fill="url(#linear-gradient-2)"/><path d="M137 349a35 35 0 0 1-62 22 35 35 0 0 0 49-49 35 35 0 0 1 13 27Z" class="cls-14"/><path fill="url(#linear-gradient-3)" d="M332 62h34a68 68 0 0 1 68 69v106a17 17 0 0 1-16 17H280a17 17 0 0 1-16-17V131a68 68 0 0 1 68-69Z" transform="rotate(-57 349 158)"/><path d="m467 154-76 114a17 17 0 0 1-23 5l-66-44s99 40 151-104l9 6a17 17 0 0 1 5 23Z" class="cls-14"/><path fill="url(#linear-gradient-4)" d="M104 617a38 38 0 0 1 38 38v3H66v-3a38 38 0 0 1 38-38Z"/><path d="M142 655v3h-9v-3a38 38 0 0 0-33-38 37 37 0 0 1 4 0 38 38 0 0 1 38 38Z" class="cls-14"/><ellipse cx="89" cy="639.5" class="cls-17" rx="14.8" ry="10.1" transform="rotate(-54 89 639)"/><ellipse cx="113" cy="638" class="cls-17" rx="6.9" ry="4.7" transform="rotate(-60 113 638)"/><ellipse cx="348.9" cy="113" class="cls-17" rx="4.7" ry="6.9" transform="rotate(-45 349 113)"/><path fill="url(#linear-gradient-5)" d="M42 657h124a39 39 0 0 1 39 39H3a39 39 0 0 1 39-39Z"/><path d="M151 668H15a39 39 0 0 1 27-11h117a9 9 0 0 1-8 11Z" class="cls-20" opacity=".3"/><path d="M335 79a27 27 0 0 0-14-8l7-10a68 68 0 0 0-49 30l-19 29a68 68 0 0 0-10 51l58-82a29 29 0 0 0 7 11c8 8 20 10 25 4s4-17-5-25Z" class="cls-17"/><ellipse cx="799" cy="733.2" fill="#162126" opacity=".3" rx="465" ry="28"/><path d="M1166 651H448V205a8 8 0 0 1 8-9h701a8 8 0 0 1 9 9Z" class="cls-22"/><path fill="#9ed2a7" d="M479 230h656v395H479z"/><path d="M481 620h651v4H481zm0-385h650v4H481z" class="cls-24"/><path d="M478 226h658v8H478z" class="cls-25"/><path fill="#756b6f" d="M1128 635H486a8 8 0 0 1-8-8h658a8 8 0 0 1-8 8Z"/><path d="M1131 234v389H481V234h650m4-4H477v397h658V230Z" class="cls-27"/><circle cx="806.5" cy="213.5" r="5" class="cls-27"/><circle cx="817.5" cy="213.5" r="2.5" fill="#bd6965"/><circle cx="806.5" cy="213.5" r="2.5" fill="#1d2230"/><path d="M567 271h162v153H567zm181 217h299v96H748z" class="cls-24"/><path d="M748 380h299v96H748z" class="cls-30"/><path d="M748 271h299v96H748z" class="cls-24"/><path d="M567 441h162v143H567z" class="cls-30"/><path d="M408 650h-26c-6 0-10 5-9 10 5 21 25 36 49 36h773c24 0 44-15 49-36 1-5-3-10-8-10h-12" class="cls-25"/><path d="M1244 660c-5 21-25 36-49 36H422c-24 0-44-15-49-36a8 8 0 0 1 2-6c7 18 25 30 47 30h773c22 0 41-12 48-30a8 8 0 0 1 1 6Z" class="cls-32" opacity=".5"/><path d="M886 668H731a18 18 0 0 1-18-18h191a18 18 0 0 1-18 18Z" class="cls-32"/><path fill="#423038" d="M905 650a18 18 0 0 1-18 18H732a18 18 0 0 1-16-8 18 18 0 0 0 10 3h155a18 18 0 0 0 17-12Z"/><g class="cls-34"><path d="M1085 301h81v101h-81z" class="cls-35"/></g><path d="M1085 289h136v101h-136z" class="cls-36"/><path d="M1221 389h-136v-3h136" class="cls-37"/><path d="M1103 309h78v6h-78zm0 15h43v6h-43zm0 30h43v6h-43zm0 16h43v6h-43zm0-31h95v6h-95z" class="cls-22"/><path d="M766 394h265v7H766zm0 13h265v7H766zm0 14h265v7H766zm0 14h265v7H766z" class="cls-24"/><g class="cls-34"><path d="M448 370h81v101h-81z" class="cls-35"/></g><path d="M393 358h136v101H393z" class="cls-36"/><path d="M529 458H393v-3h136" class="cls-37"/><path d="M411 378h78v6h-78zm0 15h43v6h-43zm0 30h43v6h-43zm0 16h43v6h-43zm0-31h95v6h-95z" class="cls-22"/><path d="M1542 743H81c-28 0-51-5-51-33h1563c0 28-23 33-51 33Z" class="cls-38"/><path fill="#c8935f" d="M30 714h1563a19 19 0 0 1-19 19H49a19 19 0 0 1-19-19Z" opacity=".7"/><rect width="1620" height="18" y="696" class="cls-38" rx="9" ry="9"/><path d="M1621 709c-2 3-6 5-12 5H11c-7 0-10-3-10-6v-6c0-3 4-5 9-6a4 4 0 0 0 0 2v5c0 3 5 6 12 6h1596a22 22 0 0 0 3 0Z" class="cls-40"/><path d="M97 702a475 475 0 0 0 48 2h20l-5 1-15 1a353 353 0 0 1-48-2l-13-1a172 172 0 0 0-34-2l-20 1 5-1 14-1a209 209 0 0 1 22-1l13 1Zm149 0a475 475 0 0 0 48 2h20l-5 1-15 1a353 353 0 0 1-48-2l-13-1a172 172 0 0 0-34-2l-20 1 5-1 14-1a209 209 0 0 1 22-1l13 1Zm344 0a475 475 0 0 0 48 2h20l-5 1-15 1a353 353 0 0 1-48-2l-13-1a172 172 0 0 0-34-2l-20 1 5-1 14-1a209 209 0 0 1 22-1l13 1Zm339 0a475 475 0 0 0 48 2h20l-5 1-15 1a353 353 0 0 1-48-2l-13-1a172 172 0 0 0-34-2l-20 1 5-1 14-1a209 209 0 0 1 22-1l13 1Zm97 3a285 285 0 0 0 29 4l9 1a13 13 0 0 1 3 0 13 13 0 0 1-3 0h-9a212 212 0 0 1-29-4l-8-1a112 112 0 0 0-20-3l-12-1a12 12 0 0 1 3 0h9a126 126 0 0 1 13 1l7 1Zm-341 0a285 285 0 0 0 29 4l9 1a13 13 0 0 1 3 0 13 13 0 0 1-3 0h-9a212 212 0 0 1-29-4l-8-1a112 112 0 0 0-20-3l-12-1a12 12 0 0 1 3 0h9a126 126 0 0 1 13 1l7 1Zm-341 0a285 285 0 0 0 29 4l9 1a13 13 0 0 1 3 0 13 13 0 0 1-3 0h-9a212 212 0 0 1-29-4l-8-1a112 112 0 0 0-20-3l-12-1a12 12 0 0 1 3 0h9a126 126 0 0 1 13 1l7 1Zm873 0a285 285 0 0 0 29 4l9 1a13 13 0 0 1 3 0 13 13 0 0 1-3 0h-9a212 212 0 0 1-29-4l-8-1a112 112 0 0 0-20-3l-12-1a12 12 0 0 1 3 0h9a126 126 0 0 1 13 1l7 1Zm204 0a285 285 0 0 0 29 4l9 1a13 13 0 0 1 3 0 13 13 0 0 1-3 0h-9a212 212 0 0 1-29-4l-8-1a112 112 0 0 0-20-3l-12-1a12 12 0 0 1 3 0h9a126 126 0 0 1 13 1l7 1Zm-133-3a475 475 0 0 0 48 2h20l-5 1-15 1a353 353 0 0 1-48-2l-13-1a172 172 0 0 0-34-2l-20 1 5-1 14-1a209 209 0 0 1 22-1l13 1Zm-181 0a475 475 0 0 0 48 2h20l-5 1-15 1a353 353 0 0 1-48-2l-13-1a172 172 0 0 0-34-2l-20 1 5-1 14-1a209 209 0 0 1 22-1l13 1Zm425 0a475 475 0 0 0 48 2h20l-5 1-15 1a353 353 0 0 1-48-2l-13-1a172 172 0 0 0-34-2l-20 1 5-1 14-1a209 209 0 0 1 22-1l13 1Zm-775 0a475 475 0 0 0 48 2h20l-5 1-15 1a353 353 0 0 1-48-2l-13-1a172 172 0 0 0-34-2l-20 1 5-1 14-1a209 209 0 0 1 22-1l13 1Zm-331 0a475 475 0 0 0 48 2h20l-5 1-15 1a353 353 0 0 1-48-2l-13-1a172 172 0 0 0-34-2l-20 1 5-1 14-1a209 209 0 0 1 22-1l13 1Z" class="cls-40"/><g class="cls-41"><path d="M238 507c2-6 4-11 4-16a33 33 0 0 0-2-13l-4-9-1-4 3 3a53 53 0 0 1 5 8 39 39 0 0 1 3 7 29 29 0 0 1 1 8 34 34 0 0 1-1 9 71 71 0 0 1-3 9l-4 8-1 4-1 2v1a29 29 0 0 0 0 14 19 19 0 0 0 2 4l1 2 2 1 1 1v1l1 1h-1a9 9 0 0 1-1-1h-2a14 14 0 0 1-1-1 18 18 0 0 1-2-2 19 19 0 0 1-3-5 30 30 0 0 1-2-15l1-2v-3l2-4 3-8Zm16 15 3-10a48 48 0 0 0 2-8v-7l2 1a16 16 0 0 1 1 6 33 33 0 0 1 0 9l-3 11a37 37 0 0 0-1 9 20 20 0 0 0 1 8c2 4 5 5 4 6a5 5 0 0 1-2-1 12 12 0 0 1-5-4 19 19 0 0 1-3-9 33 33 0 0 1 1-11Z" class="cls-42"/><ellipse cx="224.5" cy="533.5" class="cls-42" rx="2.5" ry=".5"/><path d="M223 494a82 82 0 0 0 1-14 47 47 0 0 0-2-11c-2-6-5-9-4-10l3 2a24 24 0 0 1 4 7 39 39 0 0 1 3 11 65 65 0 0 1 0 15l-2 14-2 12-1 10c-1 0-2-4-2-11a92 92 0 0 1 1-11l1-14Z" class="cls-42"/></g><path d="M1584 390a3 3 0 0 1-2-1l-15-18-27 15a3 3 0 1 1-2-5l31-16 16 20a3 3 0 0 1-1 5Z" class="cls-12"/><path d="M1581 371a3 3 0 0 1-2-1l-14-18-27 15a3 3 0 1 1-3-4l31-17 17 21a3 3 0 0 1-2 4Z" class="cls-12"/><path d="M1579 352a3 3 0 0 1-2-1l-14-18-28 15a3 3 0 1 1-2-4l31-17 17 21a3 3 0 0 1-2 4Zm-132 32a2 2 0 0 1-2 0l-25-18-16 16a3 3 0 1 1-4-4l19-19 29 20a3 3 0 0 1-1 5Z" class="cls-12"/><path d="M1451 365a2 2 0 0 1-1 0l-26-18-16 16a3 3 0 1 1-4-3l19-19 29 20a3 3 0 0 1-1 4Z" class="cls-12"/><path d="M1455 347a2 2 0 0 1-1 0l-26-18-16 16a3 3 0 1 1-3-4l19-19 29 20a3 3 0 0 1-2 5Zm59 100c0 8-9 15-20 15s-20-7-20-15 9-25 20-25 20 16 20 25Z" class="cls-12"/><g class="cls-41"><path d="M1494 351a4 4 0 0 1-4-4V165a4 4 0 1 1 8 0v182a4 4 0 0 1-4 4Z" class="cls-12"/></g><path d="M1546 373c0 18-23 33-53 33s-52-15-52-33 23-53 53-53 52 34 52 53Z" class="cls-11"/><path d="M1546 373c0 18-23 33-53 33h-4c27-1 49-16 49-33s-22-50-49-53a37 37 0 0 1 4 0c30 0 53 34 53 53Z" class="cls-6"/><path d="M1539 413c0 15-20 28-44 28s-45-12-45-27 20-45 44-45 45 28 45 44Z" class="cls-11"/><path d="M1533 395c-1 1-1-2-2-2-8-12-21-20-36-20-16 0-29 8-37 21-1-1-2 2-2 2 7-14 22-27 39-27 16 0 30 13 38 26Z" class="cls-6"/><circle cx="1474.5" cy="413" r="16" class="cls-20"/><circle cx="1513.5" cy="413" r="16" class="cls-20"/><circle cx="1505.5" cy="413" r="8" class="cls-43"/><circle cx="1511" cy="408" r="5" class="cls-20"/><circle cx="1472" cy="408" r="5" class="cls-20"/><circle cx="1466.5" cy="413" r="8" class="cls-43"/><path d="M1456 347a23 23 0 0 1 6-6l3-1c1 1-2 5-5 10l-7 9-1-4a23 23 0 0 1 4-8Zm18-16a11 11 0 0 1 6-1l2 1-2 2a41 41 0 0 1-8 4h-3c-1-1 0-1 1-3a11 11 0 0 1 4-3Z" class="cls-20"/><circle cx="1472" cy="408" r="5" class="cls-20"/><g class="cls-41"><path fill="#98e2ca" d="M1470 585h92v92h-92z"/><rect width="53" height="53" x="1489.9" y="604.6" class="cls-20" rx="26.5" ry="26.5"/><rect width="8" height="16.2" x="1505.4" y="623" class="cls-12" rx="4" ry="4"/><rect width="8" height="16.2" x="1519.4" y="623" class="cls-12" rx="4" ry="4"/></g></g></g></svg>
