<svg width="20" height="20" fill="currentColor" viewBox="0 0 2048 1792" xmlns="http://www.w3.org/2000/svg"><path fill="#fff1ac" d="M580 461q0-41-25-66t-66-25q-43 0-76 26t-33 65q0 39 33 65t76 25q41 0 66-24t25-66zm743 507q0-28-25-50t-66-22q-27 0-49 23t-23 49q0 28 23 51t49 22q40 0 66-22t25-51zm-236-507q0-41-24-66t-66-25q-43 0-76 26t-33 65q0 39 33 65t76 25q41 0 66-24t24-66zm635 507q0-28-26-50t-65-22q-27 0-49 23t-23 49q0 28 23 51t49 22q39 0 65-22t26-51zm-266-397q-31-4-70-4-169 0-311 77T852 853t-82 287q0 78 23 152-35 3-68 3l-50-1q-24-1-55-7t-44-7-55-10-50-11l-253 127 72-218Q0 965 0 678q0-169 98-311t264-223 363-82q176 0 333 66t262 183 136 260zm592 561q0 117-68 224t-186 193l55 181-199-109q-150 37-218 37-169 0-311-70t-223-192-82-264 82-264 223-191 311-71q161 0 303 71t228 192 85 263z"/></svg>
