<svg xmlns="http://www.w3.org/2000/svg" xml:space="preserve" viewBox="0 0 488 488"><path fill="#fff1ac" d="M328 91c3 0 5-1 7-3l42-41a10 10 0 1 0-14-14l-42 41a10 10 0 0 0 7 17zm-175-3c2 2 4 3 7 3s5-1 7-3c4-4 4-10 0-14l-43-41c-4-4-10-4-14 0s-4 10 0 14l43 41zm91-8c5 0 10-4 10-10V10a10 10 0 0 0-20 0v60c0 6 4 10 10 10zm132 119c-8-29-25-53-49-71a140 140 0 0 0-166 1c-24 17-41 42-49 70s-6 58 6 84c11 25 29 47 52 61v73c1 39 34 71 74 71s73-32 73-71v-73a131 131 0 0 0 59-145zM244 468c-25 0-47-18-52-41h104c-5 23-26 41-52 41zm53-61H190l1-21h106v21zm5-77c-3 1-5 5-5 8v28H190v-28c0-3-2-7-5-8-45-26-67-77-53-126 13-48 59-82 112-82s99 33 113 82-9 100-55 126z"/></svg>
