<svg xmlns="http://www.w3.org/2000/svg" width="443.7" height="139.5"><path fill-rule="evenodd" stroke="#000" stroke-linecap="round" stroke-width=".9" d="m195.8 82.5 1.6-1.2q3.9-2.8 7.7-5.8 3-2.5 4.8-4.4a20.5 20.5 0 0 0 .7-.8q1.7-1.6 3-3.1l2.6-3.2a1.2 1.2 0 0 1 .2-.2.8.8 0 0 1 .5-.2q.8 0 .9 1a2.6 2.6 0 0 1 0 .2q0 .6-.5 1.2a3.7 3.7 0 0 1-.3.3 393.1 393.1 0 0 1-6.1 7.4 429.4 429.4 0 0 1-.5.5q-.7 1-3.2 3.1a179.1 179.1 0 0 1-1.2 1q-3.5 3.2-7.4 5.9a30.3 30.3 0 0 1-2.7 1.8 26 26 0 0 1-1.2.7q-2.8 9.9-7.9 19.3a91.9 91.9 0 0 1-10.8 16 85.4 85.4 0 0 1-.8 1 65.2 65.2 0 0 1-7.7 7.5 53 53 0 0 1-6.4 4.5 31.9 31.9 0 0 1-8.7 3.7 27.8 27.8 0 0 1-6.8.8 20.6 20.6 0 0 1-2.8-.2q-3-.4-4.7-1.9a5.1 5.1 0 0 1-.8-.9 11.2 11.2 0 0 1-1.4-3q-.5-1.6-.5-3.3a21.2 21.2 0 0 1 3.3-9.6 25.4 25.4 0 0 1 .6-.9 42.5 42.5 0 0 1 5.4-6.4 52 52 0 0 1 3.2-2.9q5.3-4.4 11.3-8a228.6 228.6 0 0 1 8.4-4.8 197 197 0 0 1 3.2-1.7 928.2 928.2 0 0 1 4-2l5.8-3a105.1 105.1 0 0 0 2-1l2.9-1.7a16.6 16.6 0 0 0 1-.6 89.4 89.4 0 0 0 2.3-8 74.4 74.4 0 0 0 1-4.7q1-6 .7-10.6a30.4 30.4 0 0 0 0-.1q-1.5 3-4.4 7.8-3 4.8-6.7 8.8a35.8 35.8 0 0 1-3.9 3.7 30 30 0 0 1-2.4 1.8 13.8 13.8 0 0 1-3.2 1.6 11 11 0 0 1-3.6.6 10 10 0 0 1-2.4-.3 6 6 0 0 1-4-3 15.4 15.4 0 0 1-1.7-6.2 18.7 18.7 0 0 1-.1-1.5l.2-2.7q.1-1.3.4-2.5a44.6 44.6 0 0 1 3-8.3 50 50 0 0 1 .6-1.2q2.4-4.8 5-8.6 2.2-3.1 3.8-5a25.5 25.5 0 0 1 .7-.8q4.3-5.2 10.2-8.6a26.1 26.1 0 0 1 6.8-2.7 22.4 22.4 0 0 1 5.3-.6 18.7 18.7 0 0 1 10.1 3 24 24 0 0 1 1.8 1.1q2.2 1.9 2.2 3.8a4.1 4.1 0 0 1 0 .8q-.3 1.3-1.5 1.4a2.5 2.5 0 0 1-.3 0 2 2 0 0 1-1.6-.8l-.5-1a12.4 12.4 0 0 0-1.1-2.4q-.8-1.3-2-2a5.8 5.8 0 0 0-3.3-1.1 13.7 13.7 0 0 0-5 1q-1.7.6-3.5 1.7a24.3 24.3 0 0 0-.5.4 39.2 39.2 0 0 0-5.3 4.3 50.4 50.4 0 0 0-3.4 3.7q-4.3 5-7.6 10.5a74.7 74.7 0 0 0-3.2 5.8 57.5 57.5 0 0 0-2.2 4.8 41 41 0 0 0-1 3q-.9 3-.9 5.3a11.4 11.4 0 0 0 0 .2 7.6 7.6 0 0 0 .1 1.4q.5 2.6 3 2.6a6.8 6.8 0 0 0 2.5-.5l2-1a17.3 17.3 0 0 0 1.8-1.3q3.4-2.9 6.5-7.2 3.2-4.3 5.6-8.5a55 55 0 0 0 1.3-2.4q1.3-2.6 1.8-4.5.9-2.6 2-3.8a3.7 3.7 0 0 1 .5-.5 6 6 0 0 1 1.6-.8 5 5 0 0 1 1.6-.3 8.5 8.5 0 0 1 .7 0 7.1 7.1 0 0 1 .4.1 10.1 10.1 0 0 1 .6.1 12.7 12.7 0 0 1 .5.1 7.7 7.7 0 0 1 .1.5l.1 1.3a35.3 35.3 0 0 1 0 .5 53.3 53.3 0 0 1 .1 1.2v2.4a91.8 91.8 0 0 1 0 3.5l-.2 3.4a190.1 190.1 0 0 1-.3 3.8q-.5 6.3-1.8 12.4Zm225.8 0 1.7-1.2q3.9-2.8 7.6-5.8 3.1-2.5 5-4.4a20.5 20.5 0 0 0 .6-.8l3-3.1q1.4-1.5 2.6-3.2a1.2 1.2 0 0 1 .2-.2.8.8 0 0 1 .5-.2q.8 0 .9 1a2.6 2.6 0 0 1 0 .2q0 .6-.5 1.2a3.7 3.7 0 0 1-.3.3 393.1 393.1 0 0 1-6.1 7.4 429.4 429.4 0 0 1-.4.5q-.8 1-3.3 3.1a179.1 179.1 0 0 1-1.2 1q-3.5 3.2-7.4 5.9a30.3 30.3 0 0 1-2.7 1.8 26 26 0 0 1-1.2.7q-2.9 9.9-7.9 19.3a91.9 91.9 0 0 1-10.8 16 85.4 85.4 0 0 1-.8 1 65.2 65.2 0 0 1-7.7 7.5 53 53 0 0 1-6.4 4.5 31.9 31.9 0 0 1-8.7 3.7 27.8 27.8 0 0 1-6.8.8 20.6 20.6 0 0 1-2.8-.2q-3-.4-4.7-1.9a5.1 5.1 0 0 1-.8-.9 11.2 11.2 0 0 1-1.4-3q-.5-1.6-.4-3.3a21.2 21.2 0 0 1 3.2-9.6 25.4 25.4 0 0 1 .6-.9 42.5 42.5 0 0 1 5.4-6.4 52 52 0 0 1 3.2-2.9q5.3-4.4 11.3-8a228.6 228.6 0 0 1 8.4-4.8 197 197 0 0 1 3.2-1.7 928.2 928.2 0 0 1 4-2l5.8-3a105.1 105.1 0 0 0 2-1l2.9-1.7a16.6 16.6 0 0 0 1-.6 89.4 89.4 0 0 0 2.3-8 74.4 74.4 0 0 0 1-4.7q1-6 .7-10.6a30.4 30.4 0 0 0 0-.1q-1.5 3-4.4 7.8-3 4.8-6.7 8.8a35.8 35.8 0 0 1-3.9 3.7 30 30 0 0 1-2.4 1.8 13.8 13.8 0 0 1-3.2 1.6 11 11 0 0 1-3.6.6 10 10 0 0 1-2.4-.3 6 6 0 0 1-4-3 15.4 15.4 0 0 1-1.7-6.2 18.7 18.7 0 0 1-.1-1.5l.1-2.7.5-2.5a44.6 44.6 0 0 1 3-8.3 50 50 0 0 1 .6-1.2q2.4-4.8 5-8.6 2.2-3.1 3.8-5a25.5 25.5 0 0 1 .6-.8q4.4-5.2 10.3-8.6a26.1 26.1 0 0 1 6.8-2.7 22.4 22.4 0 0 1 5.3-.6 18.7 18.7 0 0 1 10.1 3 24 24 0 0 1 1.8 1.1q2.2 1.9 2.2 3.8a4.1 4.1 0 0 1 0 .8q-.3 1.3-1.5 1.4a2.5 2.5 0 0 1-.3 0 2 2 0 0 1-1.6-.8l-.5-1a12.4 12.4 0 0 0-1.1-2.4q-.8-1.3-2-2a5.8 5.8 0 0 0-3.4-1.1 13.7 13.7 0 0 0-4.9 1q-1.7.6-3.5 1.7a24.3 24.3 0 0 0-.5.4 39.2 39.2 0 0 0-5.3 4.3 50.4 50.4 0 0 0-3.4 3.7q-4.3 5-7.6 10.5a74.7 74.7 0 0 0-3.2 5.8 57.5 57.5 0 0 0-2.2 4.8 41 41 0 0 0-1 3q-.9 3-.9 5.3a11.4 11.4 0 0 0 0 .2 7.6 7.6 0 0 0 .1 1.4q.5 2.6 3 2.6a6.8 6.8 0 0 0 2.5-.5l2-1a17.3 17.3 0 0 0 1.8-1.3q3.3-2.9 6.5-7.2 3.1-4.3 5.5-8.5a55 55 0 0 0 1.4-2.4q1.3-2.6 1.8-4.5.9-2.6 2-3.8a3.7 3.7 0 0 1 .6-.5 6 6 0 0 1 1.5-.8 5 5 0 0 1 1.6-.3 8.5 8.5 0 0 1 .7 0 7.1 7.1 0 0 1 .4.1 10.1 10.1 0 0 1 .6.1 12.7 12.7 0 0 1 .6.1 7.7 7.7 0 0 1 0 .5l.1 1.3a35.3 35.3 0 0 1 0 .5 53.3 53.3 0 0 1 .1 1.2v2.4a91.8 91.8 0 0 1 0 3.5l-.2 3.4a190.1 190.1 0 0 1-.3 3.8q-.5 6.3-1.9 12.4Zm-321 5.5q6.5-12 10.8-23.1a279.4 279.4 0 0 1 9.1-21.2 305.1 305.1 0 0 1 .7-1.4 11.4 11.4 0 0 1 1.4-2 8 8 0 0 1 2.8-2.1 13.7 13.7 0 0 1 2.6-.9 11 11 0 0 1 2.3-.3 14.4 14.4 0 0 1 1.8.1l1.6.4a8.8 8.8 0 0 1 .1 0 9.5 9.5 0 0 1-.3.6l-1.4 2.5a131.3 131.3 0 0 1-.6 1 129 129 0 0 0-2 3.3 175.9 175.9 0 0 0-2 3.7 253 253 0 0 0-.8 1.5L123 57q-3 5.6-5.5 11.6l4-5a562.7 562.7 0 0 0 .2-.4q2.8-3.7 6.5-8.1 3.8-4.5 8-8.6 4-4.1 8-6.7a21.1 21.1 0 0 1 2.4-1.4l2.5-1a8.9 8.9 0 0 1 2.3-.3q2.3 0 4.2 1.5a4.9 4.9 0 0 1 1.7 3.6 6.8 6.8 0 0 1 0 .5 11.1 11.1 0 0 1-.4 3q-.7 2.6-2.7 5.7a35.4 35.4 0 0 1 0 0q-3.1 5.1-6.3 9.9l-1.6 2.6a400.6 400.6 0 0 0-.6.9 130.2 130.2 0 0 0-1.6 2.7 178 178 0 0 0-1.8 3q-1.8 3.3-3 6.2-1 2.4-1.3 4a5.2 5.2 0 0 0 0 .6 3 3 0 0 0 0 .6q.3.9 1 1a1.9 1.9 0 0 0 .3 0 8.2 8.2 0 0 0 3-.6q1.5-.5 3-1.7a46.6 46.6 0 0 0 5.2-4.4 52 52 0 0 0 .7-.7 161.1 161.1 0 0 0 1.4-1.4l2.7-3a50 50 0 0 0 .4-.5 88 88 0 0 0 2-2.2 71.8 71.8 0 0 0 1-1.3 88.3 88.3 0 0 1 2.7-3 80.9 80.9 0 0 1 0-.1 3 3 0 0 1 .2-.2l.4-.2a.5.5 0 0 1 .2 0 .8.8 0 0 1 .4 0q.3.3.4.9a3.1 3.1 0 0 1 0 .4 2.2 2.2 0 0 1 0 .8 2 2 0 0 1-.6.7l-3.3 4-3.4 4-3.4 3.8q-1.7 1.9-3.5 3.5-3.8 3.6-7.4 5a12.2 12.2 0 0 1-4.6 1q-3.8 0-5-2.3-1.3-2.2-1.3-5.5 0-3.6 2-7.8a67 67 0 0 1 2.7-5.3 81.2 81.2 0 0 1 2-3.3l5.8-8.6a108.1 108.1 0 0 0 2.6-3.8l2-3.5a63.3 63.3 0 0 0 .3-.5 22.4 22.4 0 0 0 1-2q.9-2 1-3.6a6.1 6.1 0 0 0 0-.3q0-.9-1-.9a2.3 2.3 0 0 0-.1 0q-.7 0-2.6 1.5a32.3 32.3 0 0 0-1 .7 81 81 0 0 0-2.6 2.3 110.3 110.3 0 0 0-3 2.8 322.8 322.8 0 0 0-2.9 2.8 275 275 0 0 0-2.7 2.8q-2.5 2.6-3.4 3.8a10.1 10.1 0 0 0-.1.1q-3.8 4-7.3 8.7l-6.7 9a43.5 43.5 0 0 0-3 5 40.2 40.2 0 0 0-.1.2 119.4 119.4 0 0 1-2 3.7 140.5 140.5 0 0 1-1 1.8 3.8 3.8 0 0 1-.6.7 2.6 2.6 0 0 1-1.4.8q-1.3.3-3.4.4a51.4 51.4 0 0 0-.7 0h-1.4a15 15 0 0 0-.3 0 3.8 3.8 0 0 0-.9.3q-.4 0-.8.3a7.2 7.2 0 0 0-.3.1Zm226 0q6.4-12 10.7-23a279.4 279.4 0 0 1 9.1-21.2 305.1 305.1 0 0 1 .7-1.4 11.4 11.4 0 0 1 1.4-2 8 8 0 0 1 2.8-2.1 13.7 13.7 0 0 1 2.6-.9 11 11 0 0 1 2.4-.3 14.4 14.4 0 0 1 1.7.1l1.6.4a8.8 8.8 0 0 1 .1 0 9.5 9.5 0 0 1-.3.6l-1.4 2.5a131.3 131.3 0 0 1-.6 1 129 129 0 0 0-2 3.3 175.9 175.9 0 0 0-2 3.7 253 253 0 0 0-.8 1.5l-3.7 6.8q-3 5.6-5.5 11.6l4-5a562.7 562.7 0 0 0 .2-.4q2.8-3.7 6.5-8.1 3.8-4.5 8-8.6 4-4.1 8-6.7a21.1 21.1 0 0 1 2.4-1.4l2.5-1a8.9 8.9 0 0 1 2.3-.3q2.3 0 4.1 1.5a4.9 4.9 0 0 1 1.8 3.6 6.8 6.8 0 0 1 0 .5 11.1 11.1 0 0 1-.4 3q-.7 2.6-2.7 5.7a35.4 35.4 0 0 1 0 0l-6.3 9.9-1.6 2.6a400.6 400.6 0 0 0-.6.9 130.2 130.2 0 0 0-1.6 2.7 178 178 0 0 0-1.8 3q-1.8 3.3-3 6.2-1 2.4-1.3 4a5.2 5.2 0 0 0 0 .6 3 3 0 0 0 0 .6q.3.9 1 1a1.9 1.9 0 0 0 .4 0 8.2 8.2 0 0 0 2.9-.6q1.5-.5 3-1.7a46.6 46.6 0 0 0 5.2-4.4 52 52 0 0 0 .7-.7 161.1 161.1 0 0 0 1.3-1.4l2.8-3a50 50 0 0 0 .4-.5 88 88 0 0 0 2-2.2 71.8 71.8 0 0 0 1-1.3 88.3 88.3 0 0 1 2.7-3 80.9 80.9 0 0 1 0-.1 3 3 0 0 1 .2-.2l.4-.2a.5.5 0 0 1 .2 0 .8.8 0 0 1 .4 0q.3.3.4.9a3.1 3.1 0 0 1 0 .4 2.2 2.2 0 0 1 0 .8 2 2 0 0 1-.5.7l-3.3 4-3.5 4-3.4 3.8q-1.7 1.9-3.5 3.5-3.8 3.6-7.4 5a12.2 12.2 0 0 1-4.6 1q-3.8 0-5-2.3-1.3-2.2-1.3-5.5 0-3.6 2-7.8a67 67 0 0 1 2.7-5.3 81.2 81.2 0 0 1 2-3.3l5.8-8.6a108.1 108.1 0 0 0 2.6-3.8l2-3.5a63.3 63.3 0 0 0 .3-.5 22.4 22.4 0 0 0 1-2q.9-2 1-3.6a6.1 6.1 0 0 0 0-.3q0-.9-1-.9a2.3 2.3 0 0 0-.1 0q-.7 0-2.6 1.5a32.3 32.3 0 0 0-1 .7 81 81 0 0 0-2.6 2.3 110.3 110.3 0 0 0-3 2.8 322.8 322.8 0 0 0-2.9 2.8 275 275 0 0 0-2.7 2.8q-2.5 2.6-3.4 3.8a10.1 10.1 0 0 0-.1.1q-3.8 4-7.3 8.7l-6.7 9a43.5 43.5 0 0 0-3 5 40.2 40.2 0 0 0-.1.2 119.4 119.4 0 0 1-2 3.7 140.5 140.5 0 0 1-1 1.8 3.8 3.8 0 0 1-.6.7 2.6 2.6 0 0 1-1.4.8q-1.3.3-3.4.4a51.4 51.4 0 0 0-.7 0h-1.4a15 15 0 0 0-.3 0 3.8 3.8 0 0 0-.9.3q-.4 0-.8.3a7.2 7.2 0 0 0-.3.1ZM41.7 13.8V16q0 2-1.4 5.3a46 46 0 0 1-.7 1.8 120.9 120.9 0 0 1-2.3 5l-2.9 5.4a334.9 334.9 0 0 1-4.5 8 291.8 291.8 0 0 1-1.5 2.6 687.2 687.2 0 0 1-1.5 2.4l-2.4 4a198 198 0 0 1-1 1.5 115.3 115.3 0 0 0-2.9 4.5l-3 5.2a128 128 0 0 0 0 0 335.8 335.8 0 0 0-5 9.4 305.9 305.9 0 0 0-.8 1.3 188 188 0 0 0-2.6 5.2A139.6 139.6 0 0 0 7 82.3a69 69 0 0 0-1 2.1q-1 3-1.2 4.6A8.6 8.6 0 0 1 2 86.8a8.3 8.3 0 0 1-.7-1q-1-2-1.2-5.7a29.3 29.3 0 0 1 0-.8 13.1 13.1 0 0 1 .5-3.6q.4-1.4 1.1-2.9a22 22 0 0 1 .1-.2q1.8-3.5 4-6.9l3.6-5.3a95 95 0 0 0 .4-.8L24 36.3q6.4-10.5 10.2-19.6a97.6 97.6 0 0 0 .9-2.1 175.4 175.4 0 0 1-4.2.5l-5 .6q-5 .5-10.3.5a25.5 25.5 0 0 1-2.5-.1q-4-.4-5.4-2.2A8.8 8.8 0 0 1 6.3 11 8 8 0 0 1 6 8.8q1.3.5 3.6.6a29.8 29.8 0 0 0 0 0 63.9 63.9 0 0 0 2 .1h1.7a126 126 0 0 0 2 .1l7.9-.2 9.5-.4a19.4 19.4 0 0 0 .6 0h1.3a39.4 39.4 0 0 0 1.7-.2 43.8 43.8 0 0 0 .6-.1 3.1 3.1 0 0 0 .4-1 4.2 4.2 0 0 0 0-.8q1.3 0 2 .4a5 5 0 0 1 1.1 1 5.8 5.8 0 0 1 .3.3L51 7.5q5.3-.5 8.1-.5a16.4 16.4 0 0 1 1.9.1q2.3.3 3.5 1.3 1.6 1.3 2 3.3.3 2 .3 3.9a2.6 2.6 0 0 0-.5-.3q-1-.5-3.1-1a48.1 48.1 0 0 0-1.3-.2q-4.1-.8-11.8-.8a110.4 110.4 0 0 0-3 0 123.5 123.5 0 0 0-1 .1 152.8 152.8 0 0 0-2.2.1 187 187 0 0 0-2.3.2Zm208.4 72.8a19.6 19.6 0 0 0 2.8.2q1.3 0 3.8-.4a73.9 73.9 0 0 0 1.8-.3l8.1-1.5 8.7-1.5 5-.6a31.2 31.2 0 0 1 2.1 0h1.2l1 .1q-.2-2.4-1.6-3.6a4.3 4.3 0 0 0-1.7-.8q-1.7-.4-3.7-.6a37.3 37.3 0 0 0-3.4-.1q-5.4 0-10.6 1.2-5.2 1.2-10.3 1.2a6.4 6.4 0 0 1-1.5-.2q-1.8-.4-2.3-2a5 5 0 0 1-.2-1.5 12.4 12.4 0 0 1 .1-1.7l.6-2.6a26.5 26.5 0 0 1 1-2.7q1.6-4 3.7-7.8a347.2 347.2 0 0 0 .4-.8L258 55a272.4 272.4 0 0 1 2.2-4 320.3 320.3 0 0 1 5.4-9.4 248.7 248.7 0 0 0 3-5.1 209 209 0 0 0 4.5-8.3q2.4-4.6 4-8.6 1-2.8 1.3-4.7a10.4 10.4 0 0 0 .2-1.7q0-1.4-.5-3a16 16 0 0 0-.9-2.2 8.8 8.8 0 0 0-.1-.3q-1.4-2.6-3.7-2.6a1.9 1.9 0 0 0-.2 0l-.7.2a10.2 10.2 0 0 0-.4.1 14.3 14.3 0 0 1 0 .2q0 3-1.3 6.8a48.7 48.7 0 0 1-1.4 3.9 123.3 123.3 0 0 1-2.3 5.2 152.2 152.2 0 0 1-4.3 8.4 292.4 292.4 0 0 1-3.9 6.9 237.7 237.7 0 0 1-3.7 6.3q-5.6 8.8-9.9 17.8-2.2 4.8-3.3 9.1a31 31 0 0 0-1 7.4 6.2 6.2 0 0 0 .1.8q.2 1.4 1 3.2 1.2 2.1 3.8 3.7a9.3 9.3 0 0 0 1.6.8q1.2.4 2.6.6ZM75.4 89a15.5 15.5 0 0 0 3.8.4q7 0 12.8-3.5a64 64 0 0 0 2.5-1.5q2-1.3 3.5-2.5a31.7 31.7 0 0 0 3.1-2.9q2.9-3 5.6-6.2l5.3-6.5a2.5 2.5 0 0 0 .3-.2 1.8 1.8 0 0 0 .4-1.1 3.1 3.1 0 0 0 0-.5q-.2-.6-.5-.8a.8.8 0 0 0-.5-.1.5.5 0 0 0-.1 0q-.2 0-.4.3a3 3 0 0 0-.2.1l-2.5 3.3a136 136 0 0 1-.7.8 151.6 151.6 0 0 1-2.2 2.4l-3.5 3.5-3.3 3.1q-1.6 1.4-4.9 3.6-3.3 2.3-7 4a24.4 24.4 0 0 1-.3 0q-3.6 1.7-6.8 1.7a6.5 6.5 0 0 1-.5 0 5 5 0 0 1-3-1.3 3.7 3.7 0 0 1-1-1.3l-.3-1.4a10 10 0 0 1-.2-1.6 14.4 14.4 0 0 1 0-.3 12.4 12.4 0 0 1 .1-1 15 15 0 0 1 0-.6 17.8 17.8 0 0 1 .3-.9 58.4 58.4 0 0 1 .3-1.7 72 72 0 0 1 .4-1.8 58.1 58.1 0 0 1 0-.1 63.2 63.2 0 0 1 1-3.8 66 66 0 0 0 5.7-1.5 54.3 54.3 0 0 0 11-4.8 42.7 42.7 0 0 0 6.3-4.6 52.8 52.8 0 0 0 6.9-7.4q1.7-2 2.4-4l.6-2.1a7.3 7.3 0 0 0 .2-1.4 9.5 9.5 0 0 0 0-.1q0-1.8-.8-3.2A7.4 7.4 0 0 0 107 39q-2.9-2.3-7-2.3-4.3 0-9.5 3.2a43.7 43.7 0 0 0-4.6 3.4 55.7 55.7 0 0 0-5.4 5.1q-4.9 5.3-8.3 11.6-1.2 2-2.4 4.9a73.6 73.6 0 0 0-1 2.9 33.5 33.5 0 0 0-1 3.6 26.3 26.3 0 0 0-.8 5.8 20.3 20.3 0 0 0 0 .3q0 2 .5 3.7a10.5 10.5 0 0 0 2.8 5 10.9 10.9 0 0 0 5 2.9ZM45 87.2q-3.3 0-5.7-2.2a6.3 6.3 0 0 1-1.6-2.4q-.8-2-.8-4.9a22.6 22.6 0 0 1 0-.2q0-2.2.5-4.9 1.3-7 4.4-13.5a144.4 144.4 0 0 1 2.6-5.3l2.8-4.9a82.7 82.7 0 0 1 .6-1A2009.4 2009.4 0 0 0 49 46l2.2-3.6a135.8 135.8 0 0 0 .4-.7q.8-1.5 3.9-3 3-1.3 5.2-1.3a6.3 6.3 0 0 1 0 0 4 4 0 0 1 .7 0q1.1.2 1.1 1.1a2.9 2.9 0 0 1-.5 1.7 3.8 3.8 0 0 1-.2.3l-4.4 7a1294 1294 0 0 1-.8 1.2 135.9 135.9 0 0 0-5.3 9 149 149 0 0 0-.3.6 82.6 82.6 0 0 0-3.5 7.6 72.1 72.1 0 0 0-1 2.5Q44.8 73 44.7 77a20 20 0 0 0 0 .5 10 10 0 0 0 .1 1.5q.2 1.3.7 2.2a2.6 2.6 0 0 0 1.4 1q.7.3 1.7.3a6.2 6.2 0 0 0 2-.3q1.6-.6 3.5-2a53.5 53.5 0 0 0 6-5 58.5 58.5 0 0 0 .1-.3 133.5 133.5 0 0 0 1.4-1.4l2.2-2.3a30 30 0 0 0 .7-.9 201.7 201.7 0 0 1 2.2-2.3 180 180 0 0 1 .7-.8q1.4-1.5 2.6-3.2a3 3 0 0 1 .3-.1l.3-.3a.5.5 0 0 1 .2 0 .8.8 0 0 1 .5.1q.3.2.4.8a3.1 3.1 0 0 1 0 .5 1.8 1.8 0 0 1-.4 1 2.5 2.5 0 0 1-.2.3l-3.3 4q-1.6 2-3.5 4a86.8 86.8 0 0 1-3.2 3.6A105.4 105.4 0 0 1 59 80a32.3 32.3 0 0 1-6 4.7 30 30 0 0 1-.5.3Q49 87 45 87Zm251 .6a13.5 13.5 0 0 0 3.3.4q4.3 0 8.9-2.5a36.6 36.6 0 0 0 2-1.1 40.6 40.6 0 0 0 6.6-5.3 74.1 74.1 0 0 0 1-1 66.6 66.6 0 0 0 6.2-7 62 62 0 0 0 .9-1.2q2.5-3.6 3.9-6.6a47 47 0 0 0 .2-.5q1.3-3 2-6a27.7 27.7 0 0 0 1-6.8 19.1 19.1 0 0 0-.4-3.8 13.7 13.7 0 0 0-2.5-5.6q-2-2.6-5.6-3.4a15.9 15.9 0 0 0-3.4-.4 15.7 15.7 0 0 0-1.2 0q-2.5.3-5.2 1.3a26.4 26.4 0 0 0-4.3 2.1 38.6 38.6 0 0 0-4 2.9 45.6 45.6 0 0 0-6.2 6q-4.8 5.6-7.8 12.4a50.7 50.7 0 0 0-.6 1.4q-2.7 6.7-2.7 12.4a18.5 18.5 0 0 0 .4 3.8 13 13 0 0 0 2.4 5.3 8.8 8.8 0 0 0 5 3.2Zm-151.1 48.5a17.6 17.6 0 0 0 6.5-1.3q2.3-.9 4.6-2.4a32.3 32.3 0 0 0 .9-.6 56.5 56.5 0 0 0 6.8-5.7 72.8 72.8 0 0 0 5-5.5q5.8-6.8 10.1-14.5a90.7 90.7 0 0 0 3.6-7q1.5-3.4 2.6-6.6a55 55 0 0 0 .3-.9 37.3 37.3 0 0 1-1.5.9q-2.4 1.4-6.4 3.4a222.4 222.4 0 0 0-5.5 2.8q-3 1.5-6.1 3.3a358.8 358.8 0 0 0-.2.1q-6.4 3.6-12.4 8a53.6 53.6 0 0 0-6.9 6 45.5 45.5 0 0 0-3 3.5 22 22 0 0 0-3 4.9 17.4 17.4 0 0 0-1.4 6q-.1 1.3.5 2.6a7.3 7.3 0 0 0 .7 1.2 4 4 0 0 0 1.9 1.4q.7.3 1.6.4a10.5 10.5 0 0 0 1.3 0Zm225.9 0a17.6 17.6 0 0 0 6.5-1.3q2.3-.9 4.6-2.4a32.3 32.3 0 0 0 .9-.6 56.5 56.5 0 0 0 6.8-5.7 72.8 72.8 0 0 0 5-5.5q5.8-6.8 10.1-14.5a90.7 90.7 0 0 0 3.6-7q1.5-3.4 2.6-6.6a55 55 0 0 0 .3-.9 37.3 37.3 0 0 1-1.5.9q-2.4 1.4-6.4 3.4a222.4 222.4 0 0 0-5.5 2.8q-3 1.5-6.1 3.3a358.8 358.8 0 0 0-.2.1q-6.4 3.6-12.4 8a53.6 53.6 0 0 0-6.9 6 45.5 45.5 0 0 0-3 3.5 22 22 0 0 0-3 4.9 17.4 17.4 0 0 0-1.4 6q-.1 1.3.5 2.6a7.3 7.3 0 0 0 .7 1.2 4 4 0 0 0 1.9 1.4q.7.3 1.6.4a10.5 10.5 0 0 0 1.3 0Zm-68.7-51.1q3.1 0 6.3-2.2a33.3 33.3 0 0 0 4.5-3.7 39.2 39.2 0 0 0 1.5-1.6 59.1 59.1 0 0 0 3.9-4.8 51.9 51.9 0 0 0 1.1-1.6 64.1 64.1 0 0 0 1.4-2q1.2-2 1.8-3.5a50.5 50.5 0 0 0 2.4-5 39 39 0 0 0 1.4-4.2q1-3.4 1.1-6a20.5 20.5 0 0 0 .1-1.7 14.1 14.1 0 0 0-.2-2.6q-.9-4.6-5.2-4.6a9.5 9.5 0 0 0-3.3.6q-1.8.7-3.7 2a30.7 30.7 0 0 0-3.6 3q-1.8 1.8-3.5 4-3.5 4.4-6 9.8a77.7 77.7 0 0 0-2.6 5.7q-2.8 7-2.8 11.8a12.8 12.8 0 0 0 .2 2.1q.2 1.2.6 2a4 4 0 0 0 2.6 2.2l1 .2a5.1 5.1 0 0 0 .4 0l.6.1Zm-215.9-56h-.1a1 1 0 0 1-.3 0q-.3 0-.4-.4a1.1 1.1 0 0 1 0-.3 1.5 1.5 0 0 1 .3-.9l.3-.4a3 3 0 0 1 .1 0l4.8-4a642.8 642.8 0 0 0 3.7-3.2 566.5 566.5 0 0 0 1.2-1 142.1 142.1 0 0 1 1-1l2.5-2a20.6 20.6 0 0 1 0 0 11.7 11.7 0 0 1 1.4-1l1.5-.8a4.8 4.8 0 0 1 1.6-.3q.7 0 1.6.5a5.8 5.8 0 0 1 .3.2 8.6 8.6 0 0 1 .9.6l.7.7a4.8 4.8 0 0 1 .1.2 144.5 144.5 0 0 0 .7.8l3 3.6a1136.9 1136.9 0 0 0 .4.6l5.3 6q.3.3.3.8a2.1 2.1 0 0 1 0 .2 1.3 1.3 0 0 1 0 .5 1.2 1.2 0 0 1-.4.4q-.3.3-.6.3a.4.4 0 0 1-.1 0l-1.8-1.1a38.9 38.9 0 0 1-1.8-1.1 49 49 0 0 1-1.4-1l-2.4-1.8-2.5-2-3.3-2.7a64.2 64.2 0 0 1-3.6 2.4 70.4 70.4 0 0 1-.6.3L96 23.9a72.7 72.7 0 0 0-.7.4 109.6 109.6 0 0 0-.5.3l-2.5 1.5-3.8 2.1-2 1a3.3 3.3 0 0 1-.2 0Zm-8.4 39.5a50.8 50.8 0 0 0 3.2-1.4l3.5-2A106 106 0 0 0 87 64a64.6 64.6 0 0 0 8.2-6 73.7 73.7 0 0 0 1.9-1.6 46.3 46.3 0 0 0 6-6.5 40.6 40.6 0 0 0 2-3q1-1.6 1-3a2.6 2.6 0 0 0 0-.9q-.5-1.1-2.2-1.2a5.2 5.2 0 0 0-.1 0 5.8 5.8 0 0 0-1.3.1q-1.2.3-2.8 1.1-7.5 4-12.9 11-5.4 6.9-8.9 14.8Zm233.6-55.2h.2a3.4 3.4 0 0 1 1.5.4 4.3 4.3 0 0 1 .5.3q1 .7 1.5 1.4 1.6 1.4 4.9 4.8a362.8 362.8 0 0 1 .3.2 165 165 0 0 0 2.9 3l2.5 2.4a95.1 95.1 0 0 0 .9.7 1.6 1.6 0 0 1 .3.5 1.4 1.4 0 0 1 .1.6 2.6 2.6 0 0 1 0 .3q-.2 1-1 .7a1.8 1.8 0 0 1 0 0l-1.5-.8a490.3 490.3 0 0 1-.5-.3 42.2 42.2 0 0 1-2-1.2 52 52 0 0 1-1.4-.9l-2.8-1.8a114.3 114.3 0 0 1-.7-.5l-3-2a82.1 82.1 0 0 1-2.9-2.1 66.1 66.1 0 0 1-1.7-1.3 83.5 83.5 0 0 1-.5-.4q-1.2-1-1.5-1.5a.8.8 0 0 1-.1-.1q0-.5.6-1.1a6 6 0 0 1 .4-.3q.8-.7 2.1-.9a8.8 8.8 0 0 1 .9-.1Zm-196.5 1.8h-.2q-.8 0-.8-1a2.3 2.3 0 0 1 0 0 1.2 1.2 0 0 1 .2-.8 1.9 1.9 0 0 1 .4-.3 128 128 0 0 0 2.6-2.4l3.7-3.7 5-5q.7-.8 1.6-1.4a4 4 0 0 1 1-.5 3.2 3.2 0 0 1 1-.2q2.2 0 3.1.9a6.3 6.3 0 0 1 .4.4l.5.7a1 1 0 0 1 .1.4q0 .3-1.5 1.5a47.2 47.2 0 0 1-.5.4 69.2 69.2 0 0 1-2.7 2 85.7 85.7 0 0 1-1.8 1.4 453.2 453.2 0 0 1-1.2.8l-2.6 1.8-2.8 1.8a49.6 49.6 0 0 1-2 1.4 40.2 40.2 0 0 1-1.4.8 67.6 67.6 0 0 1-.6.3l-1.3.6a2.9 2.9 0 0 1-.2.1ZM64.2 27.7a4 4 0 0 0 1.3.2q2 0 3.4-1.3 1.4-1.4 1.9-3.4v-.8A3.5 3.5 0 0 0 70 20a3.6 3.6 0 0 0-1.8-1 4.8 4.8 0 0 0-1.3-.3 4.5 4.5 0 0 0-2.2.6 5.9 5.9 0 0 0-1.3 1 6.2 6.2 0 0 0 0 0 5.2 5.2 0 0 0-1.6 3.8q0 1.5 1 2.7a3.4 3.4 0 0 0 1.4.9Z" font-size="12" vector-effect="non-scaling-stroke"/></svg>
