<svg xmlns="http://www.w3.org/2000/svg" viewBox="0 0 512 512"><path d="m361 335-79 34 60 135 29-41 50 6zM91 469l50-6 29 41 61-135-80-34z" fill="#ff507d"/><path d="m190 352-39-17-60 134 49-6 33-74a45 45 0 0 0 26 4l18-3 3 2 11-23-41-17zm149 37c7-3 13-8 17-14l11-15 5-1-11-24-39 17-40 17 60 135 29-41h1l-33-74z" fill="#d23c69"/><path d="m439 204-10 18c-3 4-4 8-3 13l3 20c1 7-2 14-8 19l-16 12c-4 2-6 6-8 11l-4 19c-2 8-8 13-15 15l-19 5c-5 1-9 3-12 7l-12 16c-4 6-11 9-18 8l-20-3c-5-1-10 0-13 3l-18 10c-6 4-14 4-20 0l-18-10c-3-3-8-4-13-3l-20 3c-7 1-14-2-18-8l-12-16c-3-4-7-6-12-7l-19-5c-7-2-13-7-15-15l-4-19c-2-5-4-9-8-11l-16-12c-6-5-9-12-8-19l3-20c1-5 0-9-3-13l-10-18c-4-6-4-14 0-20l10-17c3-4 4-9 3-14l-3-20c-1-7 2-14 8-18l16-12c4-3 6-7 8-11l4-20c2-7 8-13 15-15l19-4c5-1 9-4 12-8l12-16c4-6 11-9 18-8l20 3c5 1 10 0 13-2l18-11c6-4 14-4 20 0l18 11c3 2 8 3 13 2l20-3c7-1 14 2 18 8l12 16c3 4 7 7 12 8l19 4c7 2 13 8 15 15l4 20c2 4 4 8 8 11l16 12c6 4 9 11 8 18l-3 20c-1 5 0 10 3 14l10 17c4 6 4 14 0 20z" fill="#ffc850"/><path d="M144 155c0-51 19-98 51-134-7-1-14 2-18 8l-12 16c-3 4-7 7-12 8l-19 4c-7 2-13 8-15 15l-4 20c-2 4-4 8-8 11l-16 12c-6 4-9 11-8 18l3 20c1 5 0 10-3 14l-10 17c-4 6-4 14 0 20l10 18c3 4 4 8 3 13l-3 20c-1 7 2 14 8 19l16 12c4 2 6 6 8 11l4 19c2 8 8 13 15 15l19 5c5 1 9 3 12 7l12 16c4 6 11 9 18 8l20-3c5-1 10 0 13 3l18 10c6 4 14 4 20 0l18-10c3-3 8-4 13-3l20 3c7 1 14-2 18-8l2-2c-107-5-193-93-193-202z" fill="#e1a546"/><circle cx="256" cy="194.1" r="137.7" fill="#ffdc64"/><path d="M287 260a125 125 0 0 1-98-142c1-6-6-9-10-5a112 112 0 1 0 158 158c4-4 1-11-5-10-14 3-29 3-45-1z" fill="#ffc850"/><path d="m256 248-47 26c-4 3-10-2-9-7l10-52-39-37c-4-3-2-10 4-11l53-6 22-49c2-5 10-5 12 0l22 49 53 6c6 1 8 8 4 11l-39 37 10 52c1 5-5 10-9 7l-47-26z" fill="#fff"/><path d="m256 117 5-6c-3-4-9-3-11 1l-22 49-53 6c-6 1-8 8-4 11l39 37-10 52c-1 5 5 10 9 7l13-7 17-52c2-6 1-12-2-16l-4-4c-2-3-1-7 3-8l3-1c7-2 12-8 13-15l4-54z" fill="#fffab4"/><path d="M314 78a8 8 0 1 0 7-14 145 145 0 0 0-181 219 8 8 0 1 0 13-10A130 130 0 0 1 314 78zm61 47c-4 2-6 7-4 11a129 129 0 0 1-195 160 8 8 0 0 0-10 13 145 145 0 0 0 193-12c44-45 55-112 27-169-2-4-7-5-11-3zm-34-28a132 132 0 0 1 12 11 8 8 0 0 0 11 1c4-3 4-8 1-11a148 148 0 0 0-13-13 8 8 0 0 0-11 12z"/><path d="m446 180-11-18-1-7 3-20c2-11-3-21-11-27l-16-12c-3-1-4-4-5-6l-4-20c-3-10-11-18-21-20l-20-5c-2-1-4-2-6-5l-12-16c-6-8-16-13-27-11l-20 3c-2 1-5 0-7-1L270 4c-9-5-19-5-28 0l-18 11c-2 1-5 2-7 1l-20-3c-11-2-21 3-27 11l-12 16c-2 3-4 4-6 5l-20 5c-10 2-18 10-21 20l-4 20c-1 2-2 5-5 6l-16 12c-8 6-13 16-11 27l3 20-1 7-11 18c-5 9-5 20 0 28l11 18 1 7-3 21c-2 10 3 20 11 26l16 12c3 2 4 4 5 7l4 19c3 10 11 18 21 21l8 2-56 124a8 8 0 0 0 8 12l45-6 26 38a8 8 0 0 0 14-2l57-127 8 4a27 27 0 0 0 28 0l8-4 57 127a8 8 0 0 0 14 2l26-38 45 6a8 8 0 0 0 8-12l-56-124 8-2c10-3 18-11 21-21l4-19c1-3 2-5 5-7l16-12c8-6 13-16 11-26l-3-21 1-7 11-18c5-8 5-19 0-28zM168 488l-20-30c-2-2-5-4-8-3l-35 4 51-114 2 3 12 16 4 4-27 60a8 8 0 0 0 15 7l26-60h8l21-3h3l-52 116zm204-33c-3-1-6 1-8 3l-20 30-52-116h3l20 3h9l27 60a8 8 0 1 0 14-7l-27-60 4-4 12-16 3-3 51 114-36-4zm60-255-10 17c-4 6-5 13-4 19l3 20c1 4-1 9-4 11l-17 12c-5 4-9 9-10 16l-5 20c-1 4-4 7-9 8l-19 5c-7 1-12 5-16 10l-12 17c-3 3-7 5-11 4l-20-3c-7-1-13 0-19 4l-17 10c-4 3-8 3-12 0l-17-10a28 28 0 0 0-19-4l-20 3c-4 1-8-1-11-4l-12-17c-4-5-9-9-16-10l-19-5c-5-1-8-4-9-8l-5-20c-1-7-5-12-10-16l-17-12c-3-2-5-7-4-11l3-20c1-6 0-13-4-19l-10-17c-3-4-3-8 0-12l10-17c4-6 5-12 4-19l-3-20c-1-4 1-8 4-11l17-12c5-4 9-9 10-16l5-19c1-5 4-8 9-9l19-5c7-1 12-5 16-10l12-17c3-3 7-5 11-4l20 3c7 1 13 0 19-4l17-10c4-2 8-2 12 0l17 10c6 4 12 5 19 4l20-3c4-1 8 1 11 4l12 17c4 5 9 9 16 10l19 5c5 1 8 4 9 9l5 19c1 7 5 12 10 16l17 12c3 3 5 7 4 11l-3 20c-1 7 0 13 4 19l10 17c3 4 3 8 0 12z"/><path d="m166 184 35 33-9 48c-1 6 1 12 6 15a15 15 0 0 0 15 1l43-24 43 24c5 3 11 2 15-1 5-3 7-9 6-15l-9-48 35-33c5-4 6-10 4-15-1-5-6-9-12-10l-48-6-21-44a14 14 0 0 0-26 0l-21 44-48 6c-6 1-11 5-12 10-2 5-1 11 4 15zm63-15c2-1 5-2 6-5l21-45 21 45c1 3 4 4 6 5l50 6-37 34c-2 2-3 4-2 7l10 49-44-24a8 8 0 0 0-8 0l-44 24 10-49c1-3 0-5-2-7l-37-34 50-6z"/></svg>
