<svg xmlns="http://www.w3.org/2000/svg" viewBox="0 0 488.8 488.8" xml:space="preserve"><path d="M488 221c0-7-5-14-12-15l-45-12 34-32c5-4 6-12 2-19l-24-41c-3-6-11-8-17-7l-45 13 13-45c1-7-1-14-8-17l-40-24c-7-4-15-3-20 2l-32 34-11-45c-1-7-8-12-15-12h-48c-7 0-14 5-15 12l-11 45-32-34c-5-5-13-6-20-2l-40 24c-7 3-9 11-8 17l13 45-45-13c-7-1-14 1-17 7l-24 41c-3 7-3 15 2 19l34 32-45 12c-7 1-12 8-12 15v47c0 7 5 14 12 15l45 11-34 32c-5 5-6 13-2 20l24 40c3 7 11 9 17 8l45-13-13 45c-1 7 1 14 8 17l40 24c7 3 15 3 20-2l32-34 11 45c1 7 8 12 15 12h48c7 0 14-5 15-12l11-45 32 34c5 5 13 6 20 2l40-24c7-3 9-11 8-17l-13-45 45 13c7 1 14-1 17-8l24-40c3-7 3-15-2-20l-34-32 45-11c7-1 12-8 12-15v-47z" fill="#ff7300"/><g fill="#ff3c00"><path d="m107 108 275 274 44 13c8 2 15-1 18-7l24-41c3-6 2-14-2-19l-34-32 45-11c7-2 12-8 12-15v-48c0-7-5-13-12-15l-45-11 34-32c4-5 6-13 2-19l-24-41c-3-6-11-9-18-7l-44 13 12-45c2-7 0-15-7-18l-41-24c-6-3-14-2-19 3l-32 33-12-46c-1-7-8-12-15-12h-48c-7 0-14 5-15 12l-11 45-32-34c-5-5-13-6-20-2l-40 24c-7 3-9 11-8 17l13 45z"/><path d="m180 296-54-94-17 103 173 173 1-1 11-45 32 34c5 4 13 6 20 2l40-24c7-3 9-11 8-18l-13-44 45 12c6 2 13 0 17-7L225 198l-45 98z"/></g><path d="M179 198h-12c-1 0-3 1-3 3v40l1 25-11-19-31-49-2-1h-14c-1 0-3 1-3 3v97l3 3h12c2 0 3-2 3-3v-67l12 20 31 48 2 2h13c2 0 3-2 3-3v-96c-1-2-2-3-4-3zm76 85h-38v-28h34c2 0 3-1 3-3v-10c0-2-1-4-3-4h-34v-24h36c1 0 3-1 3-3v-10c0-2-2-3-3-3h-52c-2 0-3 1-3 3v97c0 1 1 3 3 3h54c2 0 3-2 3-3v-11c0-2-1-4-3-4zm129-85-2-1h-13c-2 0-3 1-3 2l-13 49v2l-4 16-4-17-12-49c0-2-2-2-3-2h-13c-2 0-3 0-3 2l-13 49-5 18-4-18-11-49c0-2-2-2-3-2h-13l-3 1v3l24 96c0 2 2 3 4 3h12c2 0 3-1 4-3l13-50 4-16c1 5 3 10 3 16l12 50c0 2 2 3 4 3h12c2 0 3-1 4-3l27-96-1-4z" fill="#fff"/></svg>
